<svg width="950" height="441" viewBox="0 0 950 441" fill="none" xmlns="http://www.w3.org/2000/svg">
<path d="M189.146 72.7895H86.3136V127.692H179.996V200.023H86.3136V329H0.91008V0.458003H189.146V72.7895ZM289.817 216.581C289.817 223.843 291.124 230.67 293.739 237.061C296.353 243.161 299.839 248.535 304.196 253.183C308.844 257.83 314.218 261.462 320.318 264.076C326.709 266.69 333.535 267.998 340.798 267.998C347.769 267.998 354.305 266.69 360.406 264.076C366.796 261.462 372.17 257.83 376.528 253.183C381.175 248.535 384.807 243.161 387.421 237.061C390.326 230.96 391.778 224.424 391.778 217.453C391.778 210.481 390.326 203.945 387.421 197.845C384.807 191.454 381.175 185.935 376.528 181.287C372.17 176.639 366.796 173.008 360.406 170.394C354.305 167.779 347.769 166.472 340.798 166.472C333.535 166.472 326.709 167.779 320.318 170.394C314.218 173.008 308.844 176.639 304.196 181.287C299.839 185.935 296.353 191.309 293.739 197.409C291.124 203.219 289.817 209.609 289.817 216.581ZM389.164 105.469H468.467V329H389.164V304.163C372.316 325.369 349.512 335.972 320.754 335.972C304.487 335.972 289.526 333.067 275.874 327.257C262.221 321.157 250.311 312.733 240.143 301.985C229.976 291.237 221.988 278.6 216.178 264.076C210.659 249.552 207.899 233.72 207.899 216.581C207.899 200.604 210.659 185.499 216.178 171.265C221.698 156.741 229.395 144.104 239.272 133.356C249.149 122.608 260.913 114.184 274.566 108.084C288.219 101.693 303.325 98.4977 319.882 98.4977C347.769 98.4977 370.863 108.229 389.164 127.692V105.469ZM505.106 105.469H583.973V142.071C592.397 128.708 602.71 118.541 614.91 111.57C627.111 104.307 641.345 100.676 657.612 100.676C659.645 100.676 661.824 100.676 664.148 100.676C666.762 100.676 669.667 100.967 672.863 101.548V176.929C662.405 171.701 651.076 169.086 638.875 169.086C620.575 169.086 606.776 174.606 597.481 185.644C588.476 196.392 583.973 212.224 583.973 233.139V329H505.106V105.469ZM771.208 216.581C771.208 223.843 772.515 230.67 775.13 237.061C777.744 243.161 781.23 248.535 785.587 253.183C790.235 257.83 795.609 261.462 801.709 264.076C808.1 266.69 814.927 267.998 822.189 267.998C829.16 267.998 835.696 266.69 841.797 264.076C848.187 261.462 853.561 257.83 857.919 253.183C862.567 248.535 866.198 243.161 868.812 237.061C871.717 230.67 873.169 223.989 873.169 217.017C873.169 210.045 871.717 203.509 868.812 197.409C866.198 191.309 862.567 185.935 857.919 181.287C853.561 176.639 848.187 173.008 841.797 170.394C835.696 167.779 829.16 166.472 822.189 166.472C815.217 166.472 808.536 167.779 802.145 170.394C796.045 173.008 790.671 176.639 786.023 181.287C781.666 185.935 778.035 191.309 775.13 197.409C772.515 203.219 771.208 209.609 771.208 216.581ZM870.555 440.547V307.213C852.254 326.386 829.16 335.972 801.274 335.972C785.297 335.972 770.482 332.922 756.829 326.821C743.176 320.721 731.266 312.297 721.099 301.549C711.222 290.801 703.379 278.31 697.569 264.076C692.05 249.552 689.29 234.156 689.29 217.888C689.29 201.04 692.195 185.354 698.005 170.829C703.815 156.305 711.803 143.669 721.97 132.921C732.137 122.172 744.047 113.748 757.7 107.648C771.353 101.548 786.168 98.4977 802.145 98.4977C830.903 98.4977 853.707 109.101 870.555 130.306V105.469H949.858V440.547H870.555Z" fill="#1D4ED8"/>
</svg>