<svg width="147" height="176" viewBox="0 0 147 176" fill="none" xmlns="http://www.w3.org/2000/svg">
<circle cx="73.5" cy="101.402" r="72.4176" fill="#043434"/>
<path d="M100.772 142.742C100.148 141.879 99.307 141.222 98.4429 140.587C97.4753 139.876 96.4778 139.188 95.7228 138.262C94.4566 136.711 93.8506 134.483 92.0475 133.611C88.8402 132.058 84.7932 135.29 81.4899 135.367C78.4321 135.436 75.058 133.862 73.9976 130.821C73.5426 129.52 74.2203 128.097 73.8525 126.966C72.6721 123.345 67.9183 122.395 68.653 117.678C69.3636 113.108 74.2568 109.675 78.1908 108.176C82.5931 106.497 87.9345 104.373 88.6022 99.7107C88.8708 97.8294 88.2554 95.9492 88.0791 94.0584C87.3032 85.7315 94.8821 78.8288 95.9478 70.5345C96.0946 69.3923 96.0982 68.1661 95.5193 67.1705C94.3442 65.1467 91.5281 65.037 89.4089 64.0446C85.2563 62.1005 84.047 56.9244 82.7442 52.5268C81.5855 48.618 79.8858 44.7035 76.8233 42.0109C75.7412 41.059 74.4532 40.3037 73.0849 39.8052C66.8799 49.3525 59.8937 58.4309 52.6117 66.8629C52.6473 66.8214 44.6085 56.2547 38.6247 48.2891C38.4744 48.4049 38.3224 48.5209 38.1739 48.6363C34.5697 51.4392 30.8393 54.3973 28.8969 58.5294C27.1476 62.2514 27.0499 66.5069 26.9851 70.6194C26.9587 72.2916 26.9407 74.016 27.5762 75.5622C28.5448 77.9196 30.8705 79.4546 33.2611 80.3367C35.5511 81.1839 38.0125 81.5655 40.4522 81.451C44.3736 81.2673 48.6028 79.8865 52.0237 81.8147C57.6743 85.0008 56.0038 93.7172 59.3208 99.293C60.3311 100.992 61.8814 102.563 61.891 104.539C61.8989 105.948 61.1002 107.234 60.8902 108.628C60.4795 111.323 62.2906 113.864 62.5154 116.582C62.8854 121.022 59.1413 124.58 55.9209 127.659C52.7005 130.738 49.4621 135.098 51.0589 139.257C52.2112 142.259 55.6195 144.083 56.3659 147.212C56.6314 148.322 56.5237 149.49 56.7454 150.61C57.3308 153.57 60.0023 155.575 62.4125 157.385C63.8027 158.43 65.1705 159.504 66.5149 160.607C71.2054 164.459 75.6061 168.661 79.6679 173.169H79.669C83.3451 172.926 86.945 172.403 90.4473 171.618C93.428 165.929 96.4079 160.239 99.3886 154.548C101.331 150.84 103.229 146.133 100.772 142.742Z" fill="#75F0A8"/>
<path d="M134.362 62.9325C132.12 59.4333 129.578 56.1464 126.776 53.1015C125.374 54.1375 123.827 54.9787 122.193 55.5927C122.187 55.9583 122.196 56.338 122.226 56.7376C122.392 58.9345 121.489 61.189 119.854 62.667C119.297 63.1706 118.66 63.5881 118.163 64.1503C116.019 66.5688 117.23 70.342 116.658 73.5202C116.138 76.4112 114.112 78.7881 113.091 81.5425C112.071 84.2969 112.651 88.194 115.473 89.0021C116.574 89.3167 117.785 89.074 118.865 89.4487C119.841 89.7859 120.583 90.5798 121.22 91.3933C122.931 93.5771 124.201 96.1065 124.928 98.7848C124.945 98.8413 124.959 98.9003 124.974 98.9589C125.239 99.9677 125.412 101.021 125.243 102.049C124.702 105.333 120.864 107.51 120.831 110.84C120.795 114.604 125.469 116.6 126.871 120.093C128.602 124.406 124.867 128.849 124.009 133.417C123.217 137.636 125.189 142.246 128.791 144.585C129.27 144.896 129.776 145.165 130.299 145.392C139.866 133.265 145.575 117.954 145.575 101.311C145.575 87.1799 141.46 74.009 134.362 62.9325Z" fill="#75F0A8"/>
<path d="M12.4967 109.435C11.5225 102.085 11.7002 94.62 13.0778 87.3305C13.7125 83.9701 14.6111 80.6699 15.7192 77.4356C16.9371 73.8815 18.7603 70.5915 20.0165 67.0718C20.4072 65.9773 18.881 65.5628 18.2899 66.3437C13.9926 72.0215 11.8228 80.2778 10.5468 87.1625C9.18083 94.534 9.06938 102.01 10.0647 109.435C10.2692 110.963 12.7023 110.985 12.4967 109.435Z" fill="#76B8E8"/>
<path d="M11.7426 116.15C11.8308 117.572 12.0871 118.909 12.3908 120.301C12.678 121.62 12.7557 123.209 13.5853 124.302C13.9935 124.839 15.0091 124.905 15.1786 124.093C15.4492 122.796 14.9748 121.571 14.6751 120.302C14.3218 118.803 13.9808 117.355 13.4035 115.925C13.0773 115.117 11.6783 115.112 11.7426 116.15Z" fill="#76B8E8"/>
<g style="mix-blend-mode:multiply" opacity="0.3">
<path d="M135.147 64.5973C135.014 68.2796 134.601 71.9699 133.923 75.6432C132.327 84.2878 129.423 92.6178 125.759 100.624C123.748 105.024 121.506 109.327 119.127 113.532C113.441 123.58 106.803 133.292 98.7084 141.463C94.8345 145.374 90.6259 148.933 86.0283 152.003C80.0146 156.021 73.5409 159.085 66.7802 161.483C59.565 164.044 52.0235 165.845 44.3665 167.239C46.6985 168.357 49.1013 169.352 51.5658 170.216C58.9412 172.801 66.8715 174.206 75.1298 174.206C76.7451 174.206 78.3455 174.152 79.9332 174.045H79.9343C83.6104 173.802 87.2103 173.279 90.7126 172.494C106.962 168.87 121.117 159.692 131.084 147.056C140.651 134.93 146.36 119.619 146.36 102.976C146.36 88.8447 142.245 75.6738 135.147 64.5973Z" fill="#005A58"/>
</g>
<path d="M38.1219 10.6805C46.5811 5.13018 58.8672 4.8317 67.7889 9.46173C74.4157 12.9009 79.1549 19.0375 79.1112 27.7567C79.0858 32.8343 77.4035 37.883 75.4042 42.5818C73.7472 46.4769 71.8049 50.3001 69.6483 54.0301C68.5536 55.9235 67.3988 57.7907 66.201 59.6336C62.3854 65.5046 58.1008 71.0979 53.6298 76.3113C53.5 76.1371 53.3396 75.9221 53.1522 75.6727C52.6161 74.959 51.8597 73.9569 50.9843 72.7986C49.2327 70.4814 47.0029 67.5353 45.1005 65.0027C44.1877 63.7875 43.3512 62.6689 42.6786 61.7606C41.8963 60.704 41.3474 59.9466 41.1552 59.6512C38.2202 55.1412 35.5312 50.4602 33.3466 45.5545C30.6932 39.596 28.5575 33.062 28.7743 26.5438C28.9928 19.9674 32.6644 14.2614 38.1219 10.6805Z" fill="#A2F1F6" stroke="black"/>
<path d="M53.5293 16.0713C58.7892 16.0713 63.3519 19.0492 65.6299 23.4121L65.6621 23.4726L65.708 23.5224C67.9891 25.9619 69.3866 29.2354 69.3867 32.8379C69.3867 40.3738 63.2776 46.4834 55.7412 46.4834C50.4812 46.4832 45.9186 43.5047 43.6407 39.1416L43.6094 39.081L43.5625 39.0322L43.1455 38.5644C41.1125 36.1815 39.8839 33.0938 39.8838 29.7168C39.8838 22.1808 45.9933 16.0713 53.5293 16.0713Z" fill="#043434" stroke="black"/>
<path d="M53.5293 16.0712C58.7892 16.0712 63.3519 19.0491 65.6299 23.412C66.6146 25.2981 67.1748 27.4412 67.1748 29.7167C67.1747 37.2529 61.0654 43.3622 53.5293 43.3622C49.5959 43.3622 46.0537 41.6963 43.5625 39.0321C41.2816 36.5925 39.8839 33.3189 39.8838 29.7167C39.8838 22.1807 45.9933 16.0712 53.5293 16.0712Z" fill="#FDEFEE" stroke="black"/>
</svg>
