<svg width="14" height="14" viewBox="0 0 14 14" fill="none" xmlns="http://www.w3.org/2000/svg">
<path d="M12.4443 10.9092C12.395 11.4104 12.2665 11.8888 12.0723 12.3291L7.95996 13.2227C8.00916 12.7213 8.13776 12.2433 8.33203 11.8027L12.4443 10.9092ZM6.67773 6.80469L7.95898 6.52637V2.53125C8.3133 2.08881 8.74946 1.71346 9.24023 1.43164V6.24805L12.4443 5.55176C12.3951 6.05321 12.2666 6.53212 12.0723 6.97266L9.24023 7.58789V8.92676L12.4443 8.23047C12.4074 8.60658 12.3255 8.96959 12.2051 9.31348L12.0723 9.65039L7.95898 10.5449V7.86621L6.67773 8.14453V9.62988C6.67773 9.76556 6.6375 9.8916 6.56836 9.99609L5.90234 11.0068C5.73707 11.2529 5.48227 11.4312 5.18652 11.4941L1.55371 12.2842C1.60292 11.7827 1.73144 11.3038 1.92578 10.8633L5.39648 10.1094V8.42285L2.1582 9.12695C2.20751 8.6255 2.33594 8.14659 2.53027 7.70605L5.39648 7.08398V1.87598C5.7508 1.43353 6.18695 1.05809 6.67773 0.776367V6.80469Z" fill="#008000"/>
</svg>
